<?xml version="1.0" encoding="UTF-8"?>
<svg xmlns="http://www.w3.org/2000/svg" viewBox="0 0 651.73 999.39">
  <defs>
    <style>
      .cls-1 {
        fill: #999;
      }

      .cls-1, .cls-2, .cls-3, .cls-4, .cls-5, .cls-6, .cls-7, .cls-8, .cls-9, .cls-10, .cls-11, .cls-12, .cls-13, .cls-14, .cls-15, .cls-16, .cls-17, .cls-18, .cls-19, .cls-20, .cls-21 {
        stroke: #000;
        stroke-miterlimit: 10;
      }

      .cls-1, .cls-7, .cls-8, .cls-11, .cls-13, .cls-15, .cls-17, .cls-19, .cls-20, .cls-21 {
        stroke-width: 5px;
      }

      .cls-2 {
        fill: #136361;
      }

      .cls-2, .cls-6, .cls-9, .cls-10, .cls-12, .cls-18 {
        stroke-width: 3px;
      }

      .cls-3, .cls-10, .cls-11 {
        fill: #333;
      }

      .cls-3, .cls-14, .cls-16 {
        stroke-width: 7px;
      }

      .cls-4, .cls-5 {
        stroke-width: 6px;
      }

      .cls-4, .cls-6, .cls-13, .cls-14 {
        fill: none;
      }

      .cls-5, .cls-21 {
        fill: #b3b3b3;
      }

      .cls-7, .cls-12 {
        fill: aqua;
      }

      .cls-8 {
        fill: #29abe2;
      }

      .cls-9, .cls-15 {
        fill: gray;
      }

      .cls-16 {
        fill: #1a1a1a;
      }

      .cls-17 {
        fill: #ccc;
      }

      .cls-18, .cls-20 {
        fill: #fff;
      }

      .cls-19 {
        fill: #666;
      }
    </style>
  </defs>
  <g id="Layer_3" data-name="Layer 3">
    <path class="cls-15" d="m130.2,981.24c16.83,5.82,46.27,13.87,85.84,15.45,42.92,1.72,73.91-8.12,89.28-17.17l-1.72-23.18-131.34-7.38-35.2-7.22h-5.15l-1.72,39.49Z"/>
    <path class="cls-17" d="m130.2,827.99l.86,128.35c16.83,5.82,45.41,16.44,84.98,18.03,42.92,1.72,72.19-2.97,87.56-12.02v-143.31l-45.69,19.5-47.52,3.26-51.01-18.52-26.61-4.25-2.58,8.95Z"/>
    <polygon class="cls-20" points="303.6 949.48 331.07 949.48 340.29 685.85 309.8 696.45 294.05 828.44 296.73 941.75 303.6 949.48"/>
    <path class="cls-19" d="m144.07,704.33l50.5,5.79,51.15-.9,39.66-4.39,29.08-7.35,3.05-1.03v62.26c-5.35,4.48-24.87,24.63-94.63,28.52-68.59,3.83-108.16-17.17-108.16-17.17v-70.39l29.33,4.65Z"/>
    <path class="cls-1" d="m121.8,772.45v52.65s66.84,15.96,105.4,18.31c40.89,2.49,86.87-31.13,86.7-31.28l-3.43-45.5-18.62,8.88-37.17,10.08h-57.51l-43.05-5.34-29.57-6.98-2.74-.83"/>
    <path class="cls-11" d="m94.84,582.99s-10.89,88.39-13.52,97.38,57.46,31.73,146.74,29.6,126.04-27.26,126.04-41.1v-84.34s-86.65,13.84-136.35,13.84-122.92-15.39-122.92-15.39Z"/>
    <polygon class="cls-18" points="256.4 792.34 285.01 863.64 295.01 876.51 300.16 866.21 301.88 855.91 281.1 783.03 270.98 778.65 254.67 782.75 256.4 792.34"/>
    <circle class="cls-10" cx="254.67" cy="750.32" r="42.06"/>
    <circle class="cls-9" cx="258.1" cy="750.32" r="19.74"/>
    <polyline class="cls-6" points="285.4 873.55 298.1 879.28 313.9 867.93"/>
    <line class="cls-6" x1="305.53" y1="905.66" x2="298.1" y2="879.28"/>
    <path class="cls-7" d="m431.98,771.35s17.54,41.64,17.54,43.35,8.58,48.07-3.43,66.96c-12.02,18.89-42.19,24-42.19,24,0,0-35.35,1.75-49.8-11.12-14.45-12.88-19.6-28.33-19.6-28.33l3.02-87.56,51.92-6.87,42.55-.43Z"/>
    <polyline class="cls-4" points="576.86 750.32 502.08 827.99 453.82 828.44"/>
    <path class="cls-8" d="m337.52,780.59l2.13-72.33h82.06s34.69,1.72,34.69,15.45,6.49,37.77-19.93,46.35c-26.42,8.58-98.94,10.52-98.94,10.52"/>
    <path class="cls-2" d="m305.31,859.34l-12.02-5.15s-8.58,3.43-7.9,5.25-2.4,11.92-2.4,11.92l6.87,25.75,18.89,10.3,12.02,8.58,3.43-15.45-10.3-32.62-8.58-8.58Z"/>
    <path class="cls-5" d="m648.03,773.97c-6.5,35.97-66.67,46.78-121.7,36.84-55.03-9.94-94.37-47.16-87.87-83.13,6.5-35.97,66.67-46.78,121.7-36.84,55.03,9.94,94.37,47.16,87.87,83.13Z"/>
    <line class="cls-4" x1="543.1" y1="750.32" x2="527.5" y2="628.88"/>
    <path d="m528.28,636.43c10.3,0,10.31-16,0-16s-10.31,16,0,16h0Z"/>
    <path class="cls-14" d="m84.7,33.54c0-16.59,66.49-30.04,148.51-30.04s148.51,13.45,148.51,30.04"/>
    <polygon class="cls-12" points="367.98 588.08 367.98 654.94 358.72 660.19 351.38 660.19 351.38 592.88 367.98 588.08"/>
    <polygon class="cls-12" points="331.07 601.82 347.95 610.37 347.95 674.27 339.51 682.92 327.09 682.92 329.13 610.37 331.07 601.82"/>
    <polygon class="cls-12" points="298.1 624.14 288.15 613.83 276.22 618.99 272.69 632.72 272.69 692.08 279.56 699.68 285.4 699.68 293.3 694.53 298.1 691.57 298.1 624.14"/>
    <path class="cls-12" d="m228.06,631l-3.21-6.87-4.99-2.26h-8.74l-5.6,4.56s-3.21,6.28-4.93,9.71c-1.54,3.07-3.43,6.87-3.43,12.02v49.79l13.73,6.87h16.31s-.86-3.43,0-7.15c.38-1.63.86-66.67.86-66.67Z"/>
    <path class="cls-12" d="m157.95,624.14v64.76s-2,9.06-17.45,9.06c0,0-6.2-.41-10.3-15.45v-53.51l7.53-15.17s6.39-3.43,11.45,0,8.77,10.3,8.77,10.3Z"/>
    <path class="cls-12" d="m92.43,589.8s-7.19-3.49-13.89,3.4-8.43,61.84-8.43,61.84c0,0,3.43,10.3,13.73,13.73s8.58-78.97,8.58-78.97Z"/>
  </g>
  <g id="Layer_5" data-name="Layer 5">
    <ellipse class="cls-21" cx="227.2" cy="555.46" rx="172.54" ry="42.92"/>
    <ellipse class="cls-21" cx="227.2" cy="512.54" rx="172.54" ry="42.92"/>
    <ellipse class="cls-21" cx="227.2" cy="469.62" rx="172.54" ry="42.92"/>
    <ellipse class="cls-21" cx="227.2" cy="421.55" rx="172.54" ry="42.92"/>
    <ellipse class="cls-21" cx="227.2" cy="375.19" rx="172.54" ry="42.92"/>
    <ellipse class="cls-21" cx="227.2" cy="321.97" rx="172.54" ry="42.92"/>
    <ellipse class="cls-21" cx="227.2" cy="273.9" rx="172.54" ry="42.92"/>
    <path class="cls-15" d="m99.29,227.55l-10.3-49.79,39.49-1.72s89.28,30.9,90.13,31.76,72.18,5.35,72.18,5.35l-3.12,29.75,54.45,15.77-.76,4.93-.96,6.01s1.63,19.79-107.2,19.79-133.91-30.73-133.91-30.73v-31.12Z"/>
  </g>
  <g id="Layer_6" data-name="Layer 6">
    <path class="cls-3" d="m84.7,42.99l.86,175.12c0,16.59,66.49,30.04,148.51,30.04s148.51-13.45,148.51-30.04l-.86-175.12v-9.44c0,16.59-66.49,30.04-148.51,30.04s-148.51-13.45-148.51-30.04v9.44Z"/>
    <ellipse class="cls-16" cx="234.07" cy="34.4" rx="148.51" ry="30.04"/>
  </g>
  <g id="Layer_2" data-name="Layer 2">
    <polyline class="cls-13" points="428.93 217.25 401.46 59.3 377.42 45.56"/>
    <polyline class="cls-7" points="355.53 238.71 341.37 69.6 326.97 59.3 316.55 62.06 286.18 240.2 344.8 260.17 355.53 257.78 355.53 238.71"/>
    <polygon class="cls-7" points="259.15 217.25 246.94 66.16 233.21 63.59 210.85 213.91 213.88 247.48 233.48 265.29 245.7 260.17 256.89 240.2 259.15 219.5 259.15 217.25"/>
    <polygon class="cls-7" points="178.05 210.65 166.28 62.06 142.44 59.3 111.31 249.87 121.61 253.3 177.03 242.9 178.27 213.81 178.05 210.65"/>
    <polygon class="cls-7" points="107.88 191.49 99.2 49.09 74.78 52.94 33.24 223.57 37.49 230.98 106.16 227.55 107.88 194.93 107.88 191.49"/>
    <polygon class="cls-7" points="35.77 208.66 3.15 201.79 52.94 30.11 75.26 31.83 74.82 16.38 99.29 19.81 86.05 31.97 84.7 41.72 88.99 47.06 74.78 52.94 35.77 208.66"/>
    <polygon class="cls-7" points="401.46 59.3 428.93 213.81 428.93 217.25 432.36 236.13 430.64 242.9 355.53 236.8 353.39 215.53 374.5 49.09 401.46 59.3"/>
    <polyline class="cls-7" points="428.93 217.25 401.46 59.3 373.89 45.56 385.15 36.98 419.29 36.98 452.67 210.65 428.93 217.25"/>
  </g>
</svg>